<svg width="260" height="255" viewBox="0 0 260255" xmlns="http://www.w3.org/2000/svg">
<style>
.singleitem {
opacity: 0;
animation: fade 0.3s ease-in-out forwards;
}
@keyframes fade {
from {
opacity: .5;
}
to {
opacity: 1;
}
}
.title {
font-family: 'Segoe UI', Ubuntu, Sans-Serif;
font-size: 20px;
font-weight: 600;
}
.key,.value{
font-family: 'Segoe UI', Ubuntu, "Helvetica Neue", Sans-Serif;
font-size: 14px;
font-weight: 700;
}
.icon {
fill: #959da5;
}
.title{
fill: #24292e;
}
.key{
fill: #586069;
}
.value{
fill: #24292e;
}
.background {
fill: #fff;
}
.background {
stroke: #e4e2e2;
stroke-opacity: 1;
}
@media (prefers-color-scheme: dark) {
.icon {
fill: #8b949e;
}
.background {
fill: #0d1117;
}
.background {
stroke: #e4e2e2;
}
.title{
fill: #c9d1d9;
}
.key {
fill: #8b949e;
}
.value{
fill: #c9d1d9;
}
}
</style>
<rect class="background" x="0.5" y="0.5" rx="4.5" height="99%" width="99%"/>
<g transform="translate(25, 40)" class="singleitem" style="animation-delay: 50ms">
<text class="title" x="0" y="0">Shiming Zhang's Stats</text>
</g>
<g transform="translate(25, 65)">
<g transform="translate(0, 0)" class="singleitem" style="animation-delay: 110ms">
<svg class="icon fill" viewBox="0 0 16 16" version="1.1" width="16" height="16">
<path fill-rule="evenodd"
d="M8 .25a.75.75 0 01.673.418l1.882 3.815 4.21.612a.75.75 0 01.416 1.279l-3.046 2.97.719 4.192a.75.75 0 01-1.088.791L8 12.347l-3.766 1.98a.75.75 0 01-1.088-.79l.72-4.194L.818 6.374a.75.75 0 01.416-1.28l4.21-.611L7.327.668A.75.75 0 018 .25zm0 2.445L6.615 5.5a.75.75 0 01-.564.41l-3.097.45 2.24 2.184a.75.75 0 01.216.664l-.528 3.084 2.769-1.456a.75.75 0 01.698 0l2.77 1.456-.53-3.084a.75.75 0 01.216-.664l2.24-2.183-3.096-.45a.75.75 0 01-.564-.41L8 2.694v.001z" />
</svg><text class="key" x="25" y="12.5">Total stars:</text>
<text class="value" x="180" y="12.5">331</text>
</g>
<g transform="translate(0, 25)" class="singleitem" style="animation-delay: 210ms">
<svg class="icon fill" viewBox="0 0 16 16" version="1.1" width="16" height="16">
<path fill-rule="evenodd"
d="M5 3.25a.75.75 0 11-1.5 0 .75.75 0 011.5 0zm0 2.122a2.25 2.25 0 10-1.5 0v.878A2.25 2.25 0 005.75 8.5h1.5v2.128a2.251 2.251 0 101.5 0V8.5h1.5a2.25 2.25 0 002.25-2.25v-.878a2.25 2.25 0 10-1.5 0v.878a.75.75 0 01-.75.75h-4.5A.75.75 0 015 6.25v-.878zm3.75 7.378a.75.75 0 11-1.5 0 .75.75 0 011.5 0zm3-8.75a.75.75 0 100-1.5.75.75 0 000 1.5z" />
</svg><text class="key" x="25" y="12.5">Total forks:</text>
<text class="value" x="180" y="12.5">34</text>
</g>
<g transform="translate(0, 50)" class="singleitem" style="animation-delay: 310ms">
<svg class="icon fill" viewBox="0 0 16 16" version="1.1" width="16" height="16">
<path fill-rule="evenodd"
d="M2 2.5A2.5 2.5 0 014.5 0h8.75a.75.75 0 01.75.75v12.5a.75.75 0 01-.75.75h-2.5a.75.75 0 110-1.5h1.75v-2h-8a1 1 0 00-.714 1.7.75.75 0 01-1.072 1.05A2.495 2.495 0 012 11.5v-9zm10.5-1V9h-8c-.356 0-.694.074-1 .208V2.5a1 1 0 011-1h8zM5 12.25v3.25a.25.25 0 00.4.2l1.45-1.087a.25.25 0 01.3 0L8.6 15.7a.25.25 0 00.4-.2v-3.25a.25.25 0 00-.25-.25h-3.5a.25.25 0 00-.25.25z"/>
</svg><text class="key" x="25" y="12.5">Contributed to:</text>
<text class="value" x="180" y="12.5">29</text>
</g>
<g transform="translate(0, 75)" class="singleitem" style="animation-delay: 410ms">
<svg class="icon fill" viewBox="0 0 16 16" version="1.1" width="16" height="16">
<path fill-rule="evenodd"
d="M8 1.5a6.5 6.5 0 100 13 6.5 6.5 0 000-13zM0 8a8 8 0 1116 0A8 8 0 010 8zm9 3a1 1 0 11-2 0 1 1 0 012 0zm-.25-6.25a.75.75 0 00-1.5 0v3.5a.75.75 0 001.5 0v-3.5z" />
</svg><text class="key" x="25" y="12.5">Issues in a year:</text>
<text class="value" x="180" y="12.5">25</text>
</g>
<g transform="translate(0, 100)" class="singleitem" style="animation-delay: 510ms">
<svg class="icon fill" viewBox="0 0 16 16" version="1.1" width="16" height="16">
<path fill-rule="evenodd"
d="M1.643 3.143L.427 1.927A.25.25 0 000 2.104V5.75c0 .138.112.25.25.25h3.646a.25.25 0 00.177-.427L2.715 4.215a6.5 6.5 0 11-1.18 4.458.75.75 0 10-1.493.154 8.001 8.001 0 101.6-5.684zM7.75 4a.75.75 0 01.75.75v2.992l2.028.812a.75.75 0 01-.557 1.392l-2.5-1A.75.75 0 017 8.25v-3.5A.75.75 0 017.75 4z" />
</svg><text class="key" x="25" y="12.5">Commits in a year:</text>
<text class="value" x="180" y="12.5">530</text>
</g>
<g transform="translate(0, 125)" class="singleitem" style="animation-delay: 610ms">
<svg class="icon fill" viewBox="0 0 16 16" version="1.1" width="16" height="16">
<path fill-rule="evenodd"
d="M0 1.75A.75.75 0 01.75 1h4.253c1.227 0 2.317.59 3 1.501A3.744 3.744 0 0111.006 1h4.245a.75.75 0 01.75.75v10.5a.75.75 0 01-.75.75h-4.507a2.25 2.25 0 00-1.591.659l-.622.621a.75.75 0 01-1.06 0l-.622-.621A2.25 2.25 0 005.258 13H.75a.75.75 0 01-.75-.75V1.75zm8.755 3a2.25 2.25 0 012.25-2.25H14.5v9h-3.757c-.71 0-1.4.201-1.992.572l.004-7.322zm-1.504 7.324l.004-5.073-.002-2.253A2.25 2.25 0 005.003 2.5H1.5v9h3.757a3.75 3.75 0 011.994.574z" />
</svg><text class="key" x="25" y="12.5">Reviews in a year:</text>
<text class="value" x="180" y="12.5">10</text>
</g>
<g transform="translate(0, 150)" class="singleitem" style="animation-delay: 710ms">
<svg class="icon fill" viewBox="0 0 16 16" version="1.1" width="16" height="16">
<path fill-rule="evenodd"
d="M7.177 3.073L9.573.677A.25.25 0 0110 .854v4.792a.25.25 0 01-.427.177L7.177 3.427a.25.25 0 010-.354zM3.75 2.5a.75.75 0 100 1.5.75.75 0 000-1.5zm-2.25.75a2.25 2.25 0 113 2.122v5.256a2.251 2.251 0 11-1.5 0V5.372A2.25 2.25 0 011.5 3.25zM11 2.5h-1V4h1a1 1 0 011 1v5.628a2.251 2.251 0 101.5 0V5A2.5 2.5 0 0011 2.5zm1 10.25a.75.75 0 111.5 0 .75.75 0 01-1.5 0zM3.75 12a.75.75 0 100 1.5.75.75 0 000-1.5z"/>
</svg><text class="key" x="25" y="12.5">PRs in a year:</text>
<text class="value" x="180" y="12.5">87</text>
</g>
</g>
</svg>